<?xml version="1.0" encoding="utf-8"?>
<!-- Generator: Adobe Illustrator 27.1.0, SVG Export Plug-In . SVG Version: 6.00 Build 0)  -->
<svg version="1.1" id="Capa_1" xmlns="http://www.w3.org/2000/svg" xmlns:xlink="http://www.w3.org/1999/xlink" x="0px" y="0px"
	 viewBox="0 0 32 32" style="enable-background:new 0 0 32 32;" xml:space="preserve">
<style type="text/css">
	.st0{opacity:0.5;fill:#2C2C2C;enable-background:new    ;}
</style>
<path class="st0" d="M16,0C7.2,0,0,7.2,0,16s7.2,16,16,16s16-7.2,16-16S24.8,0,16,0z M16,4.8c2.7,0,4.8,2.1,4.8,4.8
	s-2.1,4.8-4.8,4.8s-4.8-2.1-4.8-4.8S13.3,4.8,16,4.8z M16,27.5c-4,0-7.5-2-9.6-5.2c0-3.2,6.4-4.9,9.6-4.9c3.2,0,9.6,1.7,9.6,4.9
	C23.5,25.5,20,27.5,16,27.5z"/>
</svg>
