<?xml version="1.0" encoding="utf-8"?>
<!-- Generator: Adobe Illustrator 27.1.0, SVG Export Plug-In . SVG Version: 6.00 Build 0)  -->
<svg version="1.1" id="Glyph" xmlns="http://www.w3.org/2000/svg" xmlns:xlink="http://www.w3.org/1999/xlink" x="0px" y="0px"
	 viewBox="0 0 512 512" style="enable-background:new 0 0 512 512;" xml:space="preserve">
<style type="text/css">
	.st0{fill:#FFFFFF;}
</style>
<path class="st0" d="M55.4,294.4l1,148.2c-0.1,29.3,23.5,53.2,52.8,53.4h293.8c29.3-0.2,52.9-24.1,52.8-53.4V294.4h1
	c15.9,0.1,30.3-9.5,36.2-24.3c6.4-14.8,3.1-32.1-8.3-43.5l-191-194.9c-20.9-20.2-54-20.2-74.9,0l-191,194.9
	c-11.5,11.4-14.8,28.7-8.3,43.5C25.1,284.9,39.4,294.5,55.4,294.4z M153.8,305.2c8.2-3.4,17.5,0.5,20.9,8.6
	c18.7,44.9,70.2,66.1,115,47.4c21.4-8.9,38.5-26,47.4-47.4c3.4-8.2,12.8-12,20.9-8.6s12,12.8,8.6,20.9
	c-25.5,61.2-95.8,90.1-157,64.6c-29.2-12.2-52.4-35.4-64.6-64.6C141.8,318,145.7,308.6,153.8,305.2L153.8,305.2z"/>
</svg>
