<?xml version="1.0" encoding="utf-8"?>
<!-- Generator: Adobe Illustrator 27.1.0, SVG Export Plug-In . SVG Version: 6.00 Build 0)  -->
<svg version="1.1" id="Capa_1" xmlns="http://www.w3.org/2000/svg" xmlns:xlink="http://www.w3.org/1999/xlink" x="0px" y="0px"
	 viewBox="0 0 512 512" style="enable-background:new 0 0 512 512;" xml:space="preserve">
<style type="text/css">
	.st0{fill:#02F971;}
	.st1{fill:#0BB554;}
	.st2{fill:#FFFFFF;}
	.st3{fill:#1FE81F;}
</style>
<path class="st0" d="M410,103H102c-53,0-96,43-96,96v136c0,53,43,96,96,96c5.4,0,9.9,4.4,9.9,9.9c0,0.8-0.1,1.7-0.3,2.5l-4.1,15.7
	c-2.5,9.6,3.2,19.5,12.8,22c4.2,1.1,8.6,0.7,12.5-1.2l90.1-43.9c6.6-3.2,13.7-4.9,21-4.9H410c53,0,96-43,96-96V199
	C506,146,463,103,410,103L410,103z"/>
<path class="st1" d="M240,36h218c26.5,0,48,21.5,48,48v34c0,26.5-21.5,48-48,48H240c-26.5,0-48-21.5-48-48V84
	C192,57.5,213.5,36,240,36z"/>
<g>
	<circle class="st2" cx="282" cy="101" r="17"/>
	<circle class="st2" cx="349" cy="101" r="17"/>
	<circle class="st2" cx="416" cy="101" r="17"/>
</g>
<ellipse class="st3" cx="182" cy="284.5" rx="29" ry="19.5"/>
<ellipse class="st3" cx="329" cy="284.5" rx="29" ry="19.5"/>
<g>
	<path class="st2" d="M222,256h-42c-3.3,0-6,2.7-6,6s2.7,6,6,6h42c3.3,0,6-2.7,6-6S225.3,256,222,256z"/>
	<path class="st2" d="M332,256h-42c-3.3,0-6,2.7-6,6s2.7,6,6,6h42c3.3,0,6-2.7,6-6S335.3,256,332,256z"/>
	<path class="st2" d="M270,284.7c-4.4,4.4-9.3,6.8-14,6.8s-9.5-2.3-14-6.8c-2.4-2.3-6.2-2.2-8.5,0.1c-2.2,2.3-2.2,6,0,8.3
		c6.7,6.7,14.5,10.3,22.5,10.3s15.7-3.6,22.5-10.3c2.3-2.4,2.3-6.2-0.1-8.5C276,282.4,272.3,282.4,270,284.7z"/>
</g>
</svg>
