<?xml version="1.0" encoding="utf-8"?>
<!-- Generator: Adobe Illustrator 27.1.0, SVG Export Plug-In . SVG Version: 6.00 Build 0)  -->
<svg version="1.1" id="Layer_1" xmlns="http://www.w3.org/2000/svg" xmlns:xlink="http://www.w3.org/1999/xlink" x="0px" y="0px"
	 viewBox="0 0 512 512" style="enable-background:new 0 0 512 512;" xml:space="preserve">
<style type="text/css">
	.st0{fill:#02F971;}
</style>
<g>
	<g>
		<path class="st0" d="M461.9,30.6H50.1C22.5,30.6,0,53.1,0,80.7v267.1c0,27.6,22.5,50.1,50.1,50.1h148.1l43.4,75.1
			c6.4,11.1,22.5,11.1,28.9,0l43.4-75.1h148.1c27.6,0,50.1-22.5,50.1-50.1V80.7C512,53.1,489.5,30.6,461.9,30.6z M383.9,160.1
			l-6.3,51.2c-1.6,12.8-16.4,19-26.6,11.3l-8.5-6.4l-51.5,64.8c-6.7,8.4-19.5,8.4-26.1,0l-53.5-67.2l-53.5,67.2
			c-5.7,7.2-16.2,8.4-23.5,2.7c-7.2-5.7-8.4-16.2-2.7-23.5l66.6-83.7c6.7-8.4,19.5-8.4,26.1,0l53.5,67.2l37.9-47.7l-6-4.6
			c-10.3-7.7-8.3-23.7,3.5-28.7l47.5-20.1C372.5,137.6,385.5,147.2,383.9,160.1z"/>
	</g>
</g>
</svg>
