<?xml version="1.0" encoding="utf-8"?>
<!-- Generator: Adobe Illustrator 27.1.0, SVG Export Plug-In . SVG Version: 6.00 Build 0)  -->
<svg version="1.1" id="Layer_1" xmlns="http://www.w3.org/2000/svg" xmlns:xlink="http://www.w3.org/1999/xlink" x="0px" y="0px"
	 viewBox="0 0 100 100" style="enable-background:new 0 0 100 100;" xml:space="preserve">
<style type="text/css">
	.st0{fill:#1E1E1E;}
</style>
<path class="st0" d="M84.4,13.1h-7V8.4c0-2-1.6-3.6-3.6-3.6c-2,0-3.6,1.6-3.6,3.6v4.7H29.8V8.4c0-2-1.6-3.6-3.6-3.6
	s-3.6,1.6-3.6,3.6v4.7h-7C8.4,13.1,2.5,19,2.5,26.2V82c0,7.2,5.9,13.1,13.1,13.1h68.7c7.2,0,13.1-5.9,13.1-13.1V26.2
	C97.5,19,91.6,13.1,84.4,13.1z M90.4,82c0,3.4-2.7,6-6,6H15.6c-3.4,0-6-2.7-6-6V38.2h80.8V82z"/>
<path class="st0" d="M25.7,47.3h-7c-1.3,0-2.4,1.1-2.4,2.4v7c0,1.3,1.1,2.4,2.4,2.4h7c1.3,0,2.4-1.1,2.4-2.4v-7
	C28.1,48.3,27.1,47.3,25.7,47.3z"/>
<path class="st0" d="M44.2,47.3h-7c-1.3,0-2.4,1.1-2.4,2.4v7c0,1.3,1.1,2.4,2.4,2.4h7c1.3,0,2.4-1.1,2.4-2.4v-7
	C46.6,48.3,45.6,47.3,44.2,47.3z"/>
<path class="st0" d="M55.8,59h7c1.3,0,2.4-1.1,2.4-2.4v-7c0-1.3-1.1-2.4-2.4-2.4h-7c-1.3,0-2.4,1.1-2.4,2.4v7
	C53.4,58,54.4,59,55.8,59z"/>
<path class="st0" d="M81.2,47.3h-7c-1.3,0-2.4,1.1-2.4,2.4v7c0,1.3,1.1,2.4,2.4,2.4h7c1.3,0,2.4-1.1,2.4-2.4v-7
	C83.6,48.3,82.6,47.3,81.2,47.3z"/>
<path class="st0" d="M25.7,67.2h-7c-1.3,0-2.4,1.1-2.4,2.4v7c0,1.3,1.1,2.4,2.4,2.4h7c1.3,0,2.4-1.1,2.4-2.4v-7
	C28.1,68.3,27.1,67.2,25.7,67.2z"/>
<path class="st0" d="M44.2,67.2h-7c-1.3,0-2.4,1.1-2.4,2.4v7c0,1.3,1.1,2.4,2.4,2.4h7c1.3,0,2.4-1.1,2.4-2.4v-7
	C46.6,68.3,45.6,67.2,44.2,67.2z"/>
<path class="st0" d="M62.7,67.2h-7c-1.3,0-2.4,1.1-2.4,2.4v7c0,1.3,1.1,2.4,2.4,2.4h7c1.3,0,2.4-1.1,2.4-2.4v-7
	C65.1,68.3,64.1,67.2,62.7,67.2z"/>
</svg>
